<svg width="27" height="21" viewBox="0 0 27 21" fill="none" xmlns="http://www.w3.org/2000/svg">
<path d="M23.2586 2.29397C20.9211 0.345975 17.225 0.0159746 17.0688 0.00197456C16.822 -0.0200254 16.5876 0.124975 16.4864 0.358975C16.4825 0.366975 16.2762 0.987975 16.0766 1.58697C18.793 2.07997 20.6386 3.17397 20.737 3.23397C21.1979 3.51197 21.3522 4.12497 21.0831 4.60197C20.9048 4.91997 20.5817 5.09797 20.25 5.09797C20.0851 5.09797 19.9193 5.05497 19.7669 4.96297C19.7399 4.94597 17.0322 3.34797 13.5019 3.34797C9.97071 3.34797 7.26204 4.94697 7.23504 4.96297C6.77507 5.23997 6.18493 5.07698 5.91782 4.59898C5.65071 4.12298 5.80596 3.51197 6.26496 3.23397C6.36332 3.17397 8.21571 2.07597 10.9398 1.58397C10.7296 0.977975 10.5175 0.366975 10.5136 0.358975C10.4124 0.123975 10.178 -0.0240254 9.93118 0.00197456C9.77496 0.0149746 6.07886 0.344975 3.71057 2.31997C2.47243 3.50597 0 10.44 0 16.435C0 16.541 0.0260358 16.644 0.0771429 16.736C1.78489 19.846 6.44046 20.66 7.50118 20.695C7.50793 20.696 7.51371 20.696 7.5195 20.696C7.70657 20.696 7.88304 20.603 7.99393 20.446L9.14143 18.834C6.62464 18.205 5.29393 17.216 5.21389 17.155C4.78575 16.828 4.69318 16.202 5.0085 15.757C5.32286 15.314 5.92457 15.216 6.35271 15.541C6.38839 15.565 8.84443 17.348 13.5 17.348C18.1739 17.348 20.6232 15.558 20.6473 15.54C21.0754 15.218 21.6791 15.315 21.9925 15.761C22.3049 16.205 22.2143 16.827 21.788 17.153C21.708 17.214 20.384 18.201 17.873 18.83L19.0061 20.445C19.117 20.603 19.2934 20.695 19.4805 20.695C19.4872 20.695 19.493 20.695 19.4988 20.694C20.5605 20.659 25.2161 19.845 26.9229 16.735C26.974 16.643 27 16.54 27 16.434C27 10.44 24.5276 3.50597 23.2586 2.29397ZM9.64286 14.348C8.57732 14.348 7.71429 13.229 7.71429 11.848C7.71429 10.467 8.57732 9.34797 9.64286 9.34797C10.7084 9.34797 11.5714 10.467 11.5714 11.848C11.5714 13.229 10.7084 14.348 9.64286 14.348ZM17.3571 14.348C16.2916 14.348 15.4286 13.229 15.4286 11.848C15.4286 10.467 16.2916 9.34797 17.3571 9.34797C18.4227 9.34797 19.2857 10.467 19.2857 11.848C19.2857 13.229 18.4227 14.348 17.3571 14.348Z" fill="white"/>
</svg>
