<svg width="220" height="36" viewBox="0 0 220 36" fill="none" xmlns="http://www.w3.org/2000/svg">
<path d="M1.54576 11.4H4.46176V24H1.54576V11.4ZM19.656 14.172C20.868 14.172 21.828 14.532 22.536 15.252C23.256 15.96 23.616 17.028 23.616 18.456V24H20.808V18.888C20.808 18.12 20.646 17.55 20.322 17.178C20.01 16.794 19.56 16.602 18.972 16.602C18.312 16.602 17.79 16.818 17.406 17.25C17.022 17.67 16.83 18.3 16.83 19.14V24H14.022V18.888C14.022 17.364 13.41 16.602 12.186 16.602C11.538 16.602 11.022 16.818 10.638 17.25C10.254 17.67 10.062 18.3 10.062 19.14V24H7.25401V14.316H9.93601V15.432C10.296 15.024 10.734 14.712 11.25 14.496C11.778 14.28 12.354 14.172 12.978 14.172C13.662 14.172 14.28 14.31 14.832 14.586C15.384 14.85 15.828 15.24 16.164 15.756C16.56 15.252 17.058 14.862 17.658 14.586C18.27 14.31 18.936 14.172 19.656 14.172ZM38.5349 14.172C39.7469 14.172 40.7069 14.532 41.4149 15.252C42.1349 15.96 42.4949 17.028 42.4949 18.456V24H39.6869V18.888C39.6869 18.12 39.5249 17.55 39.2009 17.178C38.8889 16.794 38.4389 16.602 37.8509 16.602C37.1909 16.602 36.6689 16.818 36.2849 17.25C35.9009 17.67 35.7089 18.3 35.7089 19.14V24H32.9009V18.888C32.9009 17.364 32.2889 16.602 31.0649 16.602C30.4169 16.602 29.9009 16.818 29.5169 17.25C29.1329 17.67 28.9409 18.3 28.9409 19.14V24H26.1329V14.316H28.8149V15.432C29.1749 15.024 29.6129 14.712 30.1289 14.496C30.6569 14.28 31.2329 14.172 31.8569 14.172C32.5409 14.172 33.1589 14.31 33.7109 14.586C34.2629 14.85 34.7069 15.24 35.0429 15.756C35.4389 15.252 35.9369 14.862 36.5369 14.586C37.1489 14.31 37.8149 14.172 38.5349 14.172ZM45.0118 14.316H47.8198V24H45.0118V14.316ZM46.4158 12.966C45.8998 12.966 45.4798 12.816 45.1558 12.516C44.8318 12.216 44.6698 11.844 44.6698 11.4C44.6698 10.956 44.8318 10.584 45.1558 10.284C45.4798 9.984 45.8998 9.834 46.4158 9.834C46.9318 9.834 47.3518 9.978 47.6758 10.266C47.9998 10.554 48.1618 10.914 48.1618 11.346C48.1618 11.814 47.9998 12.204 47.6758 12.516C47.3518 12.816 46.9318 12.966 46.4158 12.966ZM60.4159 14.316V22.38C60.4159 24.156 59.9539 25.476 59.0299 26.34C58.1059 27.204 56.7559 27.636 54.9799 27.636C54.0439 27.636 53.1559 27.522 52.3159 27.294C51.4759 27.066 50.7799 26.736 50.2279 26.304L51.3439 24.288C51.7519 24.624 52.2679 24.888 52.8919 25.08C53.5159 25.284 54.1399 25.386 54.7639 25.386C55.7359 25.386 56.4499 25.164 56.9059 24.72C57.3739 24.288 57.6079 23.628 57.6079 22.74V22.326C56.8759 23.13 55.8559 23.532 54.5479 23.532C53.6599 23.532 52.8439 23.34 52.0999 22.956C51.3679 22.56 50.7859 22.008 50.3539 21.3C49.9219 20.592 49.7059 19.776 49.7059 18.852C49.7059 17.928 49.9219 17.112 50.3539 16.404C50.7859 15.696 51.3679 15.15 52.0999 14.766C52.8439 14.37 53.6599 14.172 54.5479 14.172C55.9519 14.172 57.0199 14.634 57.7519 15.558V14.316H60.4159ZM55.1059 21.228C55.8499 21.228 56.4559 21.012 56.9239 20.58C57.4039 20.136 57.6439 19.56 57.6439 18.852C57.6439 18.144 57.4039 17.574 56.9239 17.142C56.4559 16.698 55.8499 16.476 55.1059 16.476C54.3619 16.476 53.7499 16.698 53.2699 17.142C52.7899 17.574 52.5499 18.144 52.5499 18.852C52.5499 19.56 52.7899 20.136 53.2699 20.58C53.7499 21.012 54.3619 21.228 55.1059 21.228ZM65.7114 15.594C66.0474 15.126 66.4974 14.772 67.0614 14.532C67.6374 14.292 68.2974 14.172 69.0414 14.172V16.764C68.7294 16.74 68.5194 16.728 68.4114 16.728C67.6074 16.728 66.9774 16.956 66.5214 17.412C66.0654 17.856 65.8374 18.528 65.8374 19.428V24H63.0294V14.316H65.7114V15.594ZM74.5643 14.172C76.0643 14.172 77.2163 14.532 78.0203 15.252C78.8243 15.96 79.2263 17.034 79.2263 18.474V24H76.5983V22.794C76.0703 23.694 75.0863 24.144 73.6463 24.144C72.9023 24.144 72.2543 24.018 71.7023 23.766C71.1623 23.514 70.7483 23.166 70.4603 22.722C70.1723 22.278 70.0283 21.774 70.0283 21.21C70.0283 20.31 70.3643 19.602 71.0363 19.086C71.7203 18.57 72.7703 18.312 74.1863 18.312H76.4183C76.4183 17.7 76.2323 17.232 75.8603 16.908C75.4883 16.572 74.9303 16.404 74.1863 16.404C73.6703 16.404 73.1603 16.488 72.6563 16.656C72.1643 16.812 71.7443 17.028 71.3963 17.304L70.3883 15.342C70.9163 14.97 71.5463 14.682 72.2783 14.478C73.0223 14.274 73.7843 14.172 74.5643 14.172ZM74.3483 22.254C74.8283 22.254 75.2543 22.146 75.6263 21.93C75.9983 21.702 76.2623 21.372 76.4183 20.94V19.95H74.4923C73.3403 19.95 72.7643 20.328 72.7643 21.084C72.7643 21.444 72.9023 21.732 73.1783 21.948C73.4663 22.152 73.8563 22.254 74.3483 22.254ZM88.0137 23.532C87.7377 23.736 87.3957 23.892 86.9877 24C86.5917 24.096 86.1717 24.144 85.7277 24.144C84.5757 24.144 83.6817 23.85 83.0457 23.262C82.4217 22.674 82.1097 21.81 82.1097 20.67V16.692H80.6157V14.532H82.1097V12.174H84.9177V14.532H87.3297V16.692H84.9177V20.634C84.9177 21.042 85.0197 21.36 85.2237 21.588C85.4397 21.804 85.7397 21.912 86.1237 21.912C86.5677 21.912 86.9457 21.792 87.2577 21.552L88.0137 23.532ZM89.5899 14.316H92.3979V24H89.5899V14.316ZM90.9939 12.966C90.4779 12.966 90.0579 12.816 89.7339 12.516C89.4099 12.216 89.2479 11.844 89.2479 11.4C89.2479 10.956 89.4099 10.584 89.7339 10.284C90.0579 9.984 90.4779 9.834 90.9939 9.834C91.5099 9.834 91.9299 9.978 92.2539 10.266C92.5779 10.554 92.7399 10.914 92.7399 11.346C92.7399 11.814 92.5779 12.204 92.2539 12.516C91.9299 12.816 91.5099 12.966 90.9939 12.966ZM99.612 24.144C98.592 24.144 97.674 23.934 96.858 23.514C96.054 23.082 95.424 22.488 94.968 21.732C94.512 20.976 94.284 20.118 94.284 19.158C94.284 18.198 94.512 17.34 94.968 16.584C95.424 15.828 96.054 15.24 96.858 14.82C97.674 14.388 98.592 14.172 99.612 14.172C100.632 14.172 101.544 14.388 102.348 14.82C103.152 15.24 103.782 15.828 104.238 16.584C104.694 17.34 104.922 18.198 104.922 19.158C104.922 20.118 104.694 20.976 104.238 21.732C103.782 22.488 103.152 23.082 102.348 23.514C101.544 23.934 100.632 24.144 99.612 24.144ZM99.612 21.84C100.332 21.84 100.92 21.6 101.376 21.12C101.844 20.628 102.078 19.974 102.078 19.158C102.078 18.342 101.844 17.694 101.376 17.214C100.92 16.722 100.332 16.476 99.612 16.476C98.892 16.476 98.298 16.722 97.83 17.214C97.362 17.694 97.128 18.342 97.128 19.158C97.128 19.974 97.362 20.628 97.83 21.12C98.298 21.6 98.892 21.84 99.612 21.84ZM112.685 14.172C113.885 14.172 114.851 14.532 115.583 15.252C116.327 15.972 116.699 17.04 116.699 18.456V24H113.891V18.888C113.891 18.12 113.723 17.55 113.387 17.178C113.051 16.794 112.565 16.602 111.929 16.602C111.221 16.602 110.657 16.824 110.237 17.268C109.817 17.7 109.607 18.348 109.607 19.212V24H106.799V14.316H109.481V15.45C109.853 15.042 110.315 14.73 110.867 14.514C111.419 14.286 112.025 14.172 112.685 14.172Z" fill="white"/>
<path fill-rule="evenodd" clip-rule="evenodd" d="M144.992 7.39896H143.92V7.21866C144.214 7.22367 144.4 7.16357 144.27 6.9144C144.071 6.54003 144.929 6.56006 145.055 6.64145C145.28 6.78419 145.132 7.19863 144.992 7.39896ZM143.526 7.64938H144.825C144.681 7.85973 144.277 8.56841 144.015 8.56966C143.91 8.42817 143.564 7.96866 143.526 7.64938ZM147.745 6.14437C147.688 6.17192 147.623 6.19946 147.53 6.21574C147.122 6.77292 147.368 6.70781 146.648 7.17233C146.649 8.10513 146.678 8.20655 146.904 9.03293C146.91 9.05296 146.906 9.07174 146.896 9.08927C146.884 9.1068 146.869 9.11807 146.848 9.12183C146.674 9.15814 146.423 9.21949 146.278 9.24578C146.282 9.27583 146.351 9.80421 146.273 10.1974C146.152 10.8146 144.626 12.1669 144.261 12.2358C143.757 12.3309 143.194 11.9027 142.312 11.5296C142.071 11.4269 141.255 10.9111 140.829 10.7746C140.475 10.6606 140.121 11.4908 140.56 11.7124C140.764 11.8163 141.09 11.9565 141.193 12.2132C141.499 12.9757 141.145 15.9181 140.516 16.5104C140.217 16.5079 139.966 16.2437 139.744 16.3125C139.347 16.5216 139.598 17.6886 139.744 17.8914C142.182 20.3079 141.892 22.0972 142.927 23.4331C143.4 23.4331 143.09 23.9152 143.448 24.4811C143.543 24.7716 143.42 25.2649 143.369 25.4528C143.369 25.6957 143.369 25.9386 143.369 26.1815C143.343 26.2579 143.317 26.333 143.29 26.4094C143.29 26.6222 143.29 26.8338 143.29 27.0467C143.217 27.3572 143.138 27.7741 143.07 28.0646C142.925 28.6756 143.484 29.1514 143.148 29.7336C143.148 30.0917 143.149 30.0204 142.927 30.3108C142.927 30.8668 142.792 32.0387 142.927 32.4519C143.022 32.7399 144.106 33.9594 144.378 34.0771C145.033 34.3576 145.999 34.2975 145.686 35.2916C143.768 35.8588 142.544 34.9711 141.521 34.9573L141.474 35.1264C140.819 35.1276 140.296 34.9724 140.153 34.9273C140.152 34.757 140.365 33.4498 140.437 33.242C140.511 33.1305 140.583 33.0191 140.657 32.9077C140.737 32.6848 140.577 31.0533 140.563 30.6151C140.154 30.3259 140.075 29.4444 140.075 28.9598C139.957 28.5855 139.957 28.141 139.932 27.6539C139.922 27.426 139.78 27.0905 139.87 26.8038C139.931 26.6084 140.16 26.5233 140.217 26.363C140.217 26.1815 140.217 25.9987 140.217 25.8171C140.325 25.2424 140.291 24.977 139.932 24.6326C139.035 24.6439 138.912 24.6852 138.419 23.949C138.266 23.7211 137.011 21.8142 136.89 21.7629C135.846 21.3246 136.054 21.4949 135.598 20.7161C135.579 20.7161 135.3 20.805 135.056 21.1594C134.682 21.6965 134.021 23.4432 133.833 24.0554C133.727 24.3973 133.833 24.7754 133.674 25.0584C133.56 25.2624 133.188 25.3288 133.107 25.4678C132.741 26.1026 133.015 26.0525 132.318 26.5008C132.194 26.656 132.19 26.8889 132.099 27.0767C132.045 27.1481 131.993 27.2195 131.94 27.2896C131.823 27.5325 132.065 27.9732 132.019 28.1247C131.898 28.5229 131.74 28.9235 131.579 29.2942C131.259 30.0241 131.301 30.9932 130.978 31.4415C130.817 31.6669 130.426 31.4465 130.128 31.6318C130.111 31.7883 129.638 32.83 129.544 33.1205C129.544 33.6714 129.544 34.2236 129.544 34.7745C129.634 35.0537 129.878 35.3192 129.806 35.6723C129.728 36.0479 128.37 36.0429 127.633 35.9402C127.141 35.8714 126.992 35.522 127 35.1163C127.011 34.6393 128.013 31.5341 127.952 31.3288C127.191 30.5024 128.156 29.6535 128.442 28.8835C128.58 28.5091 128.495 27.9857 128.646 27.6389C128.914 27.1681 129.182 26.6973 129.449 26.2265C129.939 25.7821 129.721 25.7595 129.986 25.3614C130.216 25.0158 130.495 24.7829 130.333 24.2533C130.008 23.1877 130.712 21.6777 130.758 20.5634C130.634 20.4369 130.21 20.477 130.157 20.1377C130.05 19.4453 130.43 18.2207 130.664 18.1043C130.768 18.0529 130.887 18.098 130.979 18.0429C130.979 17.5246 130.444 14.6373 130.851 14.4908C131.102 14.4006 131.677 14.353 131.789 14.3042C131.783 14.1815 131.694 13.9186 131.589 13.9048C131.41 13.881 131.043 13.8146 130.751 13.7495C129.855 13.5504 130.684 10.1473 130.695 10.1335C130.942 9.81924 132.086 10.2424 132.225 9.7078C132.607 9.23827 131.93 7.43026 133.235 5.20406C133.675 4.45155 134.519 3.69279 135.503 4.01458C135.833 4.12226 135.633 4.57927 136.213 4.09095C136.227 3.80548 136.089 3.56633 136.008 3.33094C135.044 0.562581 138.308 -0.938668 140.595 0.643966C140.851 0.744133 141.002 0.792964 141.193 0.931946C141.319 1.55924 141.965 2.67485 141.32 3.40732C141.055 3.46116 140.733 3.60389 140.531 3.74162C140.527 3.99454 140.563 4.22743 140.611 4.37893C140.654 4.51541 140.735 4.56925 140.524 4.65189C140.496 4.6619 140.508 4.74705 140.522 4.7796C141.057 4.87977 141.625 4.68444 141.982 4.54546H142.407V4.02835H142.611V3.62393H142.814V4.32384H143.346V4.54546H151.225V4.93987H151.573V3.49747H151.867V4.67067H152.538V5.34053H154.624V5.14145H154.971V5.22785H155.957V5.78628H154.971V5.87392H154.624V5.67484H152.538V5.87392C152.231 5.87392 151.925 5.87392 151.619 5.87392V5.7387H151.225V6.14437H147.745Z" fill="white"/>
<path d="M168.231 14.172C169.131 14.172 169.947 14.382 170.679 14.802C171.423 15.21 172.005 15.792 172.425 16.548C172.845 17.292 173.055 18.162 173.055 19.158C173.055 20.154 172.845 21.03 172.425 21.786C172.005 22.53 171.423 23.112 170.679 23.532C169.947 23.94 169.131 24.144 168.231 24.144C166.995 24.144 166.023 23.754 165.315 22.974V27.492H162.507V14.316H165.189V15.432C165.885 14.592 166.899 14.172 168.231 14.172ZM167.745 21.84C168.465 21.84 169.053 21.6 169.509 21.12C169.977 20.628 170.211 19.974 170.211 19.158C170.211 18.342 169.977 17.694 169.509 17.214C169.053 16.722 168.465 16.476 167.745 16.476C167.025 16.476 166.431 16.722 165.963 17.214C165.507 17.694 165.279 18.342 165.279 19.158C165.279 19.974 165.507 20.628 165.963 21.12C166.431 21.6 167.025 21.84 167.745 21.84ZM184.691 14.316V24H182.027V22.848C181.655 23.268 181.211 23.592 180.695 23.82C180.179 24.036 179.621 24.144 179.021 24.144C177.749 24.144 176.741 23.778 175.997 23.046C175.253 22.314 174.881 21.228 174.881 19.788V14.316H177.689V19.374C177.689 20.934 178.343 21.714 179.651 21.714C180.323 21.714 180.863 21.498 181.271 21.066C181.679 20.622 181.883 19.968 181.883 19.104V14.316H184.691ZM193.016 14.172C193.916 14.172 194.732 14.382 195.464 14.802C196.208 15.21 196.79 15.792 197.21 16.548C197.63 17.292 197.84 18.162 197.84 19.158C197.84 20.154 197.63 21.03 197.21 21.786C196.79 22.53 196.208 23.112 195.464 23.532C194.732 23.94 193.916 24.144 193.016 24.144C191.684 24.144 190.67 23.724 189.974 22.884V24H187.292V10.644H190.1V15.342C190.808 14.562 191.78 14.172 193.016 14.172ZM192.53 21.84C193.25 21.84 193.838 21.6 194.294 21.12C194.762 20.628 194.996 19.974 194.996 19.158C194.996 18.342 194.762 17.694 194.294 17.214C193.838 16.722 193.25 16.476 192.53 16.476C191.81 16.476 191.216 16.722 190.748 17.214C190.292 17.694 190.064 18.342 190.064 19.158C190.064 19.974 190.292 20.628 190.748 21.12C191.216 21.6 191.81 21.84 192.53 21.84ZM199.72 10.644H202.528V24H199.72V10.644ZM205.134 14.316H207.942V24H205.134V14.316ZM206.538 12.966C206.022 12.966 205.602 12.816 205.278 12.516C204.954 12.216 204.792 11.844 204.792 11.4C204.792 10.956 204.954 10.584 205.278 10.284C205.602 9.984 206.022 9.834 206.538 9.834C207.054 9.834 207.474 9.978 207.798 10.266C208.122 10.554 208.284 10.914 208.284 11.346C208.284 11.814 208.122 12.204 207.798 12.516C207.474 12.816 207.054 12.966 206.538 12.966ZM215.228 24.144C214.196 24.144 213.266 23.934 212.438 23.514C211.622 23.082 210.98 22.488 210.512 21.732C210.056 20.976 209.828 20.118 209.828 19.158C209.828 18.198 210.056 17.34 210.512 16.584C210.98 15.828 211.622 15.24 212.438 14.82C213.266 14.388 214.196 14.172 215.228 14.172C216.248 14.172 217.136 14.388 217.892 14.82C218.66 15.24 219.218 15.846 219.566 16.638L217.388 17.808C216.884 16.92 216.158 16.476 215.21 16.476C214.478 16.476 213.872 16.716 213.392 17.196C212.912 17.676 212.672 18.33 212.672 19.158C212.672 19.986 212.912 20.64 213.392 21.12C213.872 21.6 214.478 21.84 215.21 21.84C216.17 21.84 216.896 21.396 217.388 20.508L219.566 21.696C219.218 22.464 218.66 23.064 217.892 23.496C217.136 23.928 216.248 24.144 215.228 24.144Z" fill="white"/>
</svg>
