<svg width="23" height="24" viewBox="0 0 23 24" fill="none" xmlns="http://www.w3.org/2000/svg">
<path d="M11.251 0C5.32241 0 0.459413 4.8591 0 11.0352L6.04999 13.6953C6.56445 13.3241 7.18194 13.1058 7.85095 13.1058C7.90952 13.1058 7.9688 13.1096 8.02737 13.1096L10.7182 8.96897V8.91047C10.7182 6.41455 12.6257 4.38736 14.9743 4.38736C17.3229 4.38736 19.2339 6.4183 19.2339 8.91422C19.2339 11.4101 17.3229 13.4373 14.9743 13.4373H14.879L11.0414 16.3472C11.0414 16.402 11.045 16.453 11.045 16.5077C11.045 18.3827 9.61873 19.9021 7.85448 19.9021C6.31816 19.9021 5.01684 18.7299 4.71904 17.176L0.389548 15.2695C1.73109 20.3086 6.07963 24 11.251 24C17.4845 24 22.5387 18.6294 22.5387 12.0004C22.5387 5.37133 17.4852 0 11.251 0ZM7.07185 18.2102L5.68585 17.6005C5.93214 18.1434 6.35839 18.5964 6.92436 18.8507C8.14452 19.3899 9.5524 18.7727 10.0598 17.476C10.3061 16.843 10.3061 16.156 10.0633 15.5268C9.82057 14.8938 9.35762 14.4055 8.76554 14.1438C8.18122 13.8821 7.55243 13.8941 7.00128 14.1123L8.43104 14.7415C9.33151 15.1435 9.75776 16.2415 9.38303 17.1985C9.0083 18.1554 7.97233 18.6084 7.07185 18.2102ZM17.8119 8.90597C17.8119 7.24552 16.5403 5.89032 14.9778 5.89032C13.4084 5.89032 12.1402 7.24552 12.1402 8.90597C12.1402 10.5702 13.4084 11.9216 14.9778 11.9216C16.5403 11.9216 17.8119 10.5702 17.8119 8.90597ZM12.8537 8.90222C12.8537 7.64826 13.8057 6.63654 14.9821 6.63654C16.1585 6.63654 17.1175 7.64826 17.1175 8.90222C17.1175 10.1524 16.1585 11.1679 14.9821 11.1679C13.8057 11.1679 12.8537 10.1524 12.8537 8.90222Z" fill="white"/>
</svg>
