<svg width="27" height="24" viewBox="0 0 27 24" fill="none" xmlns="http://www.w3.org/2000/svg">
<path d="M0.4769 11.272L6.69825 13.594L9.10629 21.3383C9.26037 21.8342 9.86688 22.0176 10.2695 21.6884L13.7373 18.8614C14.1008 18.5652 14.6186 18.5504 14.9985 18.8262L21.2533 23.3673C21.684 23.6803 22.2941 23.4444 22.4021 22.924L26.9841 0.883753C27.102 0.315312 26.5435 -0.158899 26.0022 0.0504418L0.46961 9.90014C-0.160481 10.1431 -0.154991 11.0352 0.4769 11.272ZM8.71821 12.358L20.877 4.86932C21.0956 4.73513 21.3204 5.0306 21.1327 5.20466L11.0982 14.5323C10.7455 14.8606 10.5179 15.3 10.4535 15.7769L10.1117 18.31C10.0664 18.6482 9.5913 18.6818 9.49797 18.3545L8.18334 13.7352C8.03277 13.2084 8.25219 12.6456 8.71821 12.358Z" fill="white"/>
</svg>
